<svg xmlns="http://www.w3.org/2000/svg" xmlns:xlink="http://www.w3.org/1999/xlink" width="500" zoomAndPan="magnify" viewBox="0 0 375 374.999991" height="500" preserveAspectRatio="xMidYMid meet" version="1.0"><style>path{stroke:#ffffff;stroke-width:5;stroke-linejoin:round;stroke-linecap:round}</style><rect width="375" height="375" rx="64" fill="#12161f"/><g transform="translate(26,26) scale(0.861)"><defs><g/><clipPath id="5e4869d073"><path d="M 331 215 L 335 215 L 335 310.5 L 331 310.5 Z M 331 215 " clip-rule="nonzero"/></clipPath><clipPath id="f9aced8034"><path d="M 341 223 L 345 223 L 345 310.5 L 341 310.5 Z M 341 223 " clip-rule="nonzero"/></clipPath></defs><path fill="#ffffff" d="M 33.242188 144.636719 L 31.933594 301.925781 C 31.929688 302.488281 31.472656 302.9375 30.910156 302.933594 C 30.351562 302.925781 29.898438 302.46875 29.90625 301.910156 L 31.214844 144.621094 C 31.21875 144.0625 31.675781 143.609375 32.234375 143.617188 C 32.796875 143.621094 33.246094 144.078125 33.242188 144.636719 Z M 33.242188 144.636719 " fill-opacity="1" fill-rule="nonzero"/><path fill="#ffffff" d="M 33.226562 179.449219 L 62.535156 198.441406 C 63.003906 198.746094 63.140625 199.375 62.835938 199.84375 C 62.53125 200.3125 61.902344 200.445312 61.429688 200.140625 L 32.121094 181.148438 C 31.652344 180.84375 31.519531 180.21875 31.824219 179.75 C 32.128906 179.277344 32.757812 179.144531 33.226562 179.449219 Z M 33.226562 179.449219 " fill-opacity="1" fill-rule="nonzero"/><path fill="#ffffff" d="M 63.363281 199.136719 L 62.5 303.046875 C 62.496094 303.609375 62.035156 304.058594 61.476562 304.054688 C 60.914062 304.046875 60.464844 303.589844 60.46875 303.03125 L 61.335938 199.121094 C 61.339844 198.5625 61.796875 198.113281 62.355469 198.117188 C 62.917969 198.121094 63.367188 198.578125 63.363281 199.136719 Z M 63.363281 199.136719 " fill-opacity="1" fill-rule="nonzero"/><path fill="#ffffff" d="M 43.316406 187.398438 L 42.359375 302.625 C 42.351562 303.183594 41.894531 303.632812 41.335938 303.628906 C 40.773438 303.625 40.324219 303.167969 40.328125 302.605469 L 41.289062 187.378906 C 41.292969 186.820312 41.75 186.371094 42.308594 186.375 C 42.871094 186.378906 43.320312 186.835938 43.316406 187.398438 Z M 43.316406 187.398438 " fill-opacity="1" fill-rule="nonzero"/><path fill="#ffffff" d="M 53.457031 194.5625 L 52.554688 303.257812 C 52.550781 303.820312 52.09375 304.269531 51.53125 304.265625 C 50.972656 304.257812 50.519531 303.800781 50.527344 303.242188 L 51.429688 194.546875 C 51.433594 193.988281 51.890625 193.539062 52.453125 193.542969 C 53.011719 193.546875 53.464844 194.003906 53.457031 194.5625 Z M 53.457031 194.5625 " fill-opacity="1" fill-rule="nonzero"/><path fill="#ffffff" d="M 32.539062 143.03125 L 124.621094 92 C 125.109375 91.726562 125.726562 91.902344 126 92.394531 C 126.269531 92.882812 126.09375 93.5 125.605469 93.773438 L 33.523438 144.804688 C 33.035156 145.074219 32.414062 144.898438 32.144531 144.410156 C 31.871094 143.917969 32.050781 143.300781 32.539062 143.03125 Z M 32.539062 143.03125 " fill-opacity="1" fill-rule="nonzero"/><path fill="#ffffff" d="M 127.394531 93.804688 L 125.667969 301.496094 C 125.664062 302.058594 125.207031 302.507812 124.644531 302.503906 C 124.085938 302.496094 123.632812 302.039062 123.640625 301.480469 L 125.367188 93.789062 C 125.371094 93.230469 125.828125 92.78125 126.390625 92.785156 C 126.949219 92.789062 127.398438 93.246094 127.394531 93.804688 Z M 127.394531 93.804688 " fill-opacity="1" fill-rule="nonzero"/><path fill="#ffffff" d="M 126.667969 91.855469 L 187.988281 127.914062 C 188.472656 128.199219 188.632812 128.820312 188.347656 129.300781 C 188.066406 129.785156 187.441406 129.945312 186.960938 129.660156 L 125.636719 93.605469 C 125.15625 93.320312 124.992188 92.699219 125.277344 92.21875 C 125.5625 91.734375 126.183594 91.574219 126.667969 91.855469 Z M 126.667969 91.855469 " fill-opacity="1" fill-rule="nonzero"/><path fill="#ffffff" d="M 188.878906 130.476562 C 188.878906 131.035156 188.425781 131.488281 187.863281 131.488281 C 187.304688 131.488281 186.851562 131.035156 186.851562 130.476562 C 186.851562 129.914062 187.304688 129.460938 187.863281 129.460938 C 188.425781 129.460938 188.878906 129.914062 188.878906 130.476562 Z M 188.878906 130.476562 " fill-opacity="1" fill-rule="nonzero"/><path fill="#ffffff" d="M 189.15625 129.734375 L 187.703125 304.3125 C 187.699219 304.875 187.238281 305.324219 186.679688 305.320312 C 186.121094 305.316406 185.667969 304.855469 185.671875 304.296875 L 187.125 129.714844 C 187.128906 129.15625 187.589844 128.707031 188.148438 128.710938 C 188.710938 128.714844 189.160156 129.171875 189.15625 129.734375 Z M 189.15625 129.734375 " fill-opacity="1" fill-rule="nonzero"/><path fill="#ffffff" d="M 126.742188 163.0625 L 216.136719 217.1875 C 216.613281 217.476562 216.769531 218.101562 216.476562 218.578125 C 216.1875 219.058594 215.5625 219.210938 215.085938 218.921875 L 125.691406 164.796875 C 125.210938 164.503906 125.058594 163.882812 125.347656 163.402344 C 125.640625 162.925781 126.261719 162.769531 126.742188 163.0625 Z M 126.742188 163.0625 " fill-opacity="1" fill-rule="nonzero"/><path fill="#ffffff" d="M 64.691406 91.632812 L 63.273438 125.910156 C 63.253906 126.46875 62.78125 126.90625 62.21875 126.882812 C 61.660156 126.859375 61.226562 126.386719 61.246094 125.828125 L 62.664062 91.550781 C 62.683594 90.988281 63.15625 90.554688 63.71875 90.578125 C 64.277344 90.601562 64.710938 91.074219 64.691406 91.632812 Z M 64.691406 91.632812 " fill-opacity="1" fill-rule="nonzero"/><path fill="#ffffff" d="M 64.820312 90.269531 L 95.75 107.398438 C 96.242188 107.667969 96.417969 108.285156 96.148438 108.773438 C 95.875 109.265625 95.257812 109.441406 94.765625 109.167969 L 63.839844 92.042969 C 63.347656 91.773438 63.171875 91.15625 63.441406 90.664062 C 63.714844 90.175781 64.332031 90 64.820312 90.269531 Z M 64.820312 90.269531 " fill-opacity="1" fill-rule="nonzero"/><path fill="#ffffff" d="M 159.304688 73.671875 L 158.992188 111.105469 C 158.988281 111.664062 158.53125 112.113281 157.96875 112.109375 C 157.410156 112.105469 156.960938 111.648438 156.964844 111.085938 L 157.277344 73.652344 C 157.28125 73.09375 157.738281 72.644531 158.300781 72.648438 C 158.859375 72.652344 159.308594 73.113281 159.304688 73.671875 Z M 159.304688 73.671875 " fill-opacity="1" fill-rule="nonzero"/><path fill="#ffffff" d="M 283.234375 7.753906 L 159.585938 74.519531 C 159.09375 74.785156 158.476562 74.605469 158.210938 74.109375 C 157.945312 73.617188 158.128906 73.003906 158.621094 72.738281 L 282.269531 5.96875 C 282.761719 5.703125 283.378906 5.886719 283.644531 6.378906 C 283.910156 6.871094 283.726562 7.484375 283.234375 7.753906 Z M 283.234375 7.753906 " fill-opacity="1" fill-rule="nonzero"/><path fill="#ffffff" d="M 99.210938 0.269531 L 374.398438 167.144531 C 374.878906 167.4375 375.03125 168.058594 374.738281 168.539062 C 374.449219 169.015625 373.824219 169.167969 373.347656 168.878906 L 98.15625 2.003906 C 97.679688 1.710938 97.527344 1.089844 97.816406 0.609375 C 98.105469 0.132812 98.730469 -0.0195312 99.210938 0.269531 Z M 99.210938 0.269531 " fill-opacity="1" fill-rule="nonzero"/><path fill="#ffffff" d="M 187.265625 202.296875 L 1.640625 305.261719 C 1.152344 305.53125 0.535156 305.355469 0.261719 304.867188 C -0.0078125 304.375 0.167969 303.757812 0.65625 303.488281 L 186.277344 200.523438 C 186.769531 200.253906 187.386719 200.429688 187.660156 200.917969 C 187.929688 201.410156 187.753906 202.027344 187.265625 202.296875 Z M 187.265625 202.296875 " fill-opacity="1" fill-rule="nonzero"/><path fill="#ffffff" d="M 156.628906 218.730469 L 155.902344 306.316406 C 155.894531 306.878906 155.4375 307.328125 154.878906 307.324219 C 154.316406 307.320312 153.867188 306.859375 153.871094 306.300781 L 154.601562 218.714844 C 154.605469 218.152344 155.0625 217.703125 155.625 217.707031 C 156.183594 217.714844 156.632812 218.171875 156.628906 218.730469 Z M 156.628906 218.730469 " fill-opacity="1" fill-rule="nonzero"/><path fill="#ffffff" d="M 168.316406 213.433594 L 167.539062 306.863281 C 167.535156 307.421875 167.078125 307.871094 166.515625 307.867188 C 165.957031 307.863281 165.507812 307.40625 165.511719 306.847656 L 166.289062 213.417969 C 166.292969 212.855469 166.75 212.40625 167.3125 212.410156 C 167.871094 212.414062 168.320312 212.875 168.316406 213.433594 Z M 168.316406 213.433594 " fill-opacity="1" fill-rule="nonzero"/><path fill="#ffffff" d="M 178.5625 207.5625 L 177.738281 306.386719 C 177.734375 306.945312 177.277344 307.398438 176.71875 307.390625 C 176.15625 307.386719 175.707031 306.929688 175.710938 306.371094 L 176.53125 207.546875 C 176.539062 206.984375 176.996094 206.535156 177.554688 206.539062 C 178.117188 206.542969 178.566406 207.003906 178.5625 207.5625 Z M 178.5625 207.5625 " fill-opacity="1" fill-rule="nonzero"/><path fill="#ffffff" d="M 218.378906 112.847656 L 216.804688 302.308594 C 216.796875 302.871094 216.339844 303.320312 215.78125 303.316406 C 215.21875 303.308594 214.769531 302.851562 214.773438 302.292969 L 216.351562 112.832031 C 216.355469 112.269531 216.8125 111.820312 217.371094 111.824219 C 217.933594 111.828125 218.382812 112.289062 218.378906 112.847656 Z M 218.378906 112.847656 " fill-opacity="1" fill-rule="nonzero"/><path fill="#ffffff" d="M 314.726562 61.453125 L 217.726562 113.484375 C 217.230469 113.75 216.617188 113.5625 216.351562 113.070312 C 216.085938 112.578125 216.273438 111.960938 216.765625 111.699219 L 313.765625 59.667969 C 314.261719 59.402344 314.875 59.589844 315.140625 60.082031 C 315.40625 60.574219 315.21875 61.191406 314.726562 61.453125 Z M 314.726562 61.453125 " fill-opacity="1" fill-rule="nonzero"/><path fill="#ffffff" d="M 252.164062 95.234375 L 250.402344 306.785156 C 250.398438 307.34375 249.941406 307.792969 249.378906 307.789062 C 248.820312 307.785156 248.371094 307.328125 248.375 306.765625 L 250.132812 95.21875 C 250.140625 94.660156 250.597656 94.207031 251.15625 94.214844 C 251.71875 94.21875 252.167969 94.675781 252.164062 95.234375 Z M 252.164062 95.234375 " fill-opacity="1" fill-rule="nonzero"/><path fill="#ffffff" d="M 231.523438 106.980469 L 231.148438 152.480469 C 231.140625 153.039062 230.683594 153.492188 230.125 153.484375 C 229.5625 153.480469 229.113281 153.023438 229.117188 152.464844 L 229.496094 106.964844 C 229.5 106.40625 229.957031 105.953125 230.519531 105.960938 C 231.078125 105.964844 231.53125 106.421875 231.523438 106.980469 Z M 231.523438 106.980469 " fill-opacity="1" fill-rule="nonzero"/><path fill="#ffffff" d="M 241.609375 101.359375 L 241.132812 158.417969 C 241.128906 158.980469 240.671875 159.429688 240.113281 159.425781 C 239.550781 159.417969 239.101562 158.960938 239.105469 158.402344 L 239.578125 101.339844 C 239.585938 100.78125 240.042969 100.332031 240.601562 100.335938 C 241.164062 100.339844 241.613281 100.796875 241.609375 101.359375 Z M 241.609375 101.359375 " fill-opacity="1" fill-rule="nonzero"/><path fill="#ffffff" d="M 369.382812 240.09375 L 217.929688 147.96875 C 217.453125 147.679688 217.300781 147.054688 217.59375 146.578125 C 217.882812 146.097656 218.507812 145.945312 218.988281 146.238281 L 370.4375 238.363281 C 370.917969 238.65625 371.066406 239.277344 370.777344 239.757812 C 370.484375 240.234375 369.863281 240.386719 369.382812 240.09375 Z M 369.382812 240.09375 " fill-opacity="1" fill-rule="nonzero"/><path fill="#ffffff" d="M 316.339844 5.96875 L 315.304688 130.488281 C 315.300781 131.046875 314.839844 131.496094 314.28125 131.492188 C 313.722656 131.488281 313.269531 131.03125 313.273438 130.46875 L 314.308594 5.953125 C 314.316406 5.394531 314.773438 4.945312 315.332031 4.949219 C 315.894531 4.953125 316.34375 5.410156 316.339844 5.96875 Z M 316.339844 5.96875 " fill-opacity="1" fill-rule="nonzero"/><path fill="#ffffff" d="M 344.972656 79.210938 L 314.925781 61.21875 C 314.445312 60.929688 314.289062 60.308594 314.578125 59.828125 C 314.863281 59.347656 315.488281 59.191406 315.96875 59.480469 L 346.015625 77.472656 C 346.496094 77.757812 346.652344 78.382812 346.363281 78.863281 C 346.074219 79.34375 345.453125 79.496094 344.972656 79.210938 Z M 344.972656 79.210938 " fill-opacity="1" fill-rule="nonzero"/><path fill="#ffffff" d="M 346.484375 78.539062 L 346.203125 112.144531 C 346.199219 112.707031 345.742188 113.15625 345.179688 113.152344 C 344.621094 113.144531 344.171875 112.6875 344.175781 112.128906 L 344.453125 78.523438 C 344.460938 77.964844 344.917969 77.515625 345.476562 77.519531 C 346.039062 77.523438 346.488281 77.980469 346.484375 78.539062 Z M 346.484375 78.539062 " fill-opacity="1" fill-rule="nonzero"/><path fill="#ffffff" d="M 371.753906 98.699219 L 315.734375 130.859375 C 315.25 131.140625 314.628906 130.972656 314.351562 130.488281 C 314.070312 130 314.238281 129.382812 314.722656 129.101562 L 370.742188 96.941406 C 371.230469 96.660156 371.851562 96.828125 372.128906 97.3125 C 372.40625 97.800781 372.242188 98.417969 371.753906 98.699219 Z M 371.753906 98.699219 " fill-opacity="1" fill-rule="nonzero"/><path fill="#ffffff" d="M 326.054688 66.402344 L 325.574219 124.097656 C 325.570312 124.65625 325.113281 125.109375 324.550781 125.101562 C 323.992188 125.097656 323.542969 124.640625 323.546875 124.082031 L 324.027344 66.386719 C 324.03125 65.824219 324.488281 65.375 325.046875 65.378906 C 325.609375 65.386719 326.058594 65.84375 326.054688 66.402344 Z M 326.054688 66.402344 " fill-opacity="1" fill-rule="nonzero"/><path fill="#ffffff" d="M 337.378906 72.972656 L 335.652344 117.542969 C 335.628906 118.101562 335.15625 118.539062 334.597656 118.515625 C 334.039062 118.496094 333.601562 118.023438 333.625 117.464844 L 335.351562 72.894531 C 335.371094 72.332031 335.84375 71.898438 336.402344 71.917969 C 336.964844 71.941406 337.398438 72.410156 337.378906 72.972656 Z M 337.378906 72.972656 " fill-opacity="1" fill-rule="nonzero"/><path fill="#ffffff" d="M 312.738281 203.722656 L 311.863281 308.875 C 311.859375 309.4375 311.402344 309.886719 310.839844 309.882812 C 310.28125 309.878906 309.828125 309.417969 309.835938 308.859375 L 310.710938 203.707031 C 310.714844 203.144531 311.171875 202.695312 311.730469 202.699219 C 312.292969 202.707031 312.742188 203.164062 312.738281 203.722656 Z M 312.738281 203.722656 " fill-opacity="1" fill-rule="nonzero"/><path fill="#ffffff" d="M 323.558594 210.511719 L 322.742188 308.433594 C 322.738281 308.992188 322.28125 309.441406 321.71875 309.4375 C 321.160156 309.433594 320.707031 308.976562 320.714844 308.414062 L 321.527344 210.492188 C 321.53125 209.933594 321.992188 209.484375 322.550781 209.488281 C 323.109375 209.492188 323.5625 209.949219 323.558594 210.511719 Z M 323.558594 210.511719 " fill-opacity="1" fill-rule="nonzero"/><g clip-path="url(#5e4869d073)"><path fill="#ffffff" d="M 334.175781 216.496094 L 333.402344 309.453125 C 333.398438 310.015625 332.941406 310.464844 332.378906 310.460938 C 331.820312 310.453125 331.367188 309.996094 331.375 309.4375 L 332.144531 216.480469 C 332.152344 215.917969 332.609375 215.46875 333.167969 215.472656 C 333.730469 215.480469 334.179688 215.9375 334.175781 216.496094 Z M 334.175781 216.496094 " fill-opacity="1" fill-rule="nonzero"/></g><g clip-path="url(#f9aced8034)"><path fill="#ffffff" d="M 344.558594 224.070312 L 343.851562 309.089844 C 343.847656 309.648438 343.390625 310.101562 342.828125 310.09375 C 342.269531 310.089844 341.820312 309.632812 341.824219 309.074219 L 342.53125 224.054688 C 342.535156 223.492188 342.992188 223.042969 343.554688 223.046875 C 344.113281 223.050781 344.566406 223.511719 344.558594 224.070312 Z M 344.558594 224.070312 " fill-opacity="1" fill-rule="nonzero"/></g><path fill="#ffffff" d="M 310.710938 203.574219 L 313.414062 132.402344 C 313.4375 131.84375 313.90625 131.40625 314.46875 131.425781 C 315.027344 131.449219 315.464844 131.917969 315.441406 132.480469 L 312.738281 203.648438 C 312.71875 204.207031 312.246094 204.644531 311.6875 204.625 C 311.128906 204.601562 310.691406 204.132812 310.710938 203.574219 Z M 310.710938 203.574219 " fill-opacity="1" fill-rule="nonzero"/><path fill="#ffffff" d="M 249.824219 167.699219 L 188.402344 201.507812 C 187.914062 201.777344 187.296875 201.597656 187.023438 201.109375 C 186.753906 200.617188 186.933594 200 187.425781 199.730469 L 248.84375 165.925781 C 249.335938 165.65625 249.953125 165.832031 250.222656 166.324219 C 250.492188 166.8125 250.3125 167.429688 249.824219 167.699219 Z M 249.824219 167.699219 " fill-opacity="1" fill-rule="nonzero"/><path fill="#ffffff" d="M 315.785156 131.140625 L 251.5 166.527344 C 251.007812 166.796875 250.390625 166.617188 250.121094 166.128906 C 249.851562 165.636719 250.03125 165.019531 250.519531 164.75 L 314.804688 129.363281 C 315.296875 129.09375 315.910156 129.273438 316.183594 129.761719 C 316.453125 130.253906 316.273438 130.871094 315.785156 131.140625 Z M 315.785156 131.140625 " fill-opacity="1" fill-rule="nonzero"/><g fill="#ffffff" fill-opacity="1"><g transform="translate(60.21, 361.799273)"><g><path d="M 6.4375 0 L 3.4375 0 L 3.4375 -28.34375 L 6.078125 -28.34375 L 20.8125 -5.90625 L 20.8125 -28.34375 L 23.8125 -28.34375 L 23.8125 0 L 21.296875 0 L 6.4375 -22.640625 Z M 6.4375 0 "/></g></g></g><g fill="#ffffff" fill-opacity="1"><g transform="translate(101.27, 361.799273)"><g><path d="M 14.453125 0.40625 C 12.054688 0.40625 9.945312 -0.179688 8.125 -1.359375 C 6.300781 -2.535156 4.875 -4.210938 3.84375 -6.390625 C 2.820312 -8.578125 2.3125 -11.171875 2.3125 -14.171875 C 2.3125 -17.140625 2.816406 -19.710938 3.828125 -21.890625 C 4.835938 -24.066406 6.257812 -25.753906 8.09375 -26.953125 C 9.9375 -28.148438 12.054688 -28.75 14.453125 -28.75 C 16.859375 -28.75 18.972656 -28.160156 20.796875 -26.984375 C 22.617188 -25.816406 24.039062 -24.144531 25.0625 -21.96875 C 26.09375 -19.800781 26.609375 -17.203125 26.609375 -14.171875 C 26.609375 -11.234375 26.101562 -8.671875 25.09375 -6.484375 C 24.082031 -4.296875 22.664062 -2.597656 20.84375 -1.390625 C 19.019531 -0.191406 16.890625 0.40625 14.453125 0.40625 Z M 14.453125 -2.4375 C 16.234375 -2.4375 17.789062 -2.898438 19.125 -3.828125 C 20.46875 -4.753906 21.507812 -6.09375 22.25 -7.84375 C 23 -9.601562 23.375 -11.710938 23.375 -14.171875 C 23.375 -16.523438 23.019531 -18.578125 22.3125 -20.328125 C 21.613281 -22.085938 20.59375 -23.457031 19.25 -24.4375 C 17.914062 -25.425781 16.316406 -25.921875 14.453125 -25.921875 C 12.703125 -25.921875 11.148438 -25.453125 9.796875 -24.515625 C 8.453125 -23.585938 7.40625 -22.253906 6.65625 -20.515625 C 5.914062 -18.773438 5.546875 -16.660156 5.546875 -14.171875 C 5.546875 -11.847656 5.898438 -9.800781 6.609375 -8.03125 C 7.328125 -6.269531 8.347656 -4.894531 9.671875 -3.90625 C 10.992188 -2.925781 12.585938 -2.4375 14.453125 -2.4375 Z M 14.453125 -2.4375 "/></g></g></g><g fill="#ffffff" fill-opacity="1"><g transform="translate(143.98, 361.799273)"><g><path d="M 14.21875 0 L 11.140625 0 L 0.84375 -28.34375 L 4.046875 -28.34375 L 12.671875 -4.171875 L 12.71875 -4.171875 L 21.34375 -28.34375 L 24.5 -28.34375 Z M 14.21875 0 "/></g></g></g><g fill="#ffffff" fill-opacity="1"><g transform="translate(183.13, 361.799273)"><g><path d="M 0.84375 -28.34375 L 4.44375 -28.34375 L 22.8 0 L 19.2 0 Z M 4.44375 0 L 0.84375 0 L 19.2 -28.34375 L 22.8 -28.34375 Z "/></g></g></g><g fill="#ffffff" fill-opacity="1"><g transform="translate(223.13, 361.799273)"><g><path d="M 25.359375 0 L 22.1875 0 L 19.6875 -6.796875 L 6.515625 -6.796875 L 3.96875 0 L 0.84375 0 L 11.5 -28.34375 L 14.703125 -28.34375 Z M 13.078125 -24.5 L 7.53125 -9.515625 L 18.671875 -9.515625 Z M 13.078125 -24.5 "/></g></g></g><g fill="#ffffff" fill-opacity="1"><g transform="translate(263.94, 361.799273)"><g><path d="M 6.4375 0 L 3.4375 0 L 3.4375 -28.34375 L 6.078125 -28.34375 L 20.8125 -5.90625 L 20.8125 -28.34375 L 23.8125 -28.34375 L 23.8125 0 L 21.296875 0 L 6.4375 -22.640625 Z M 6.4375 0 "/></g></g></g><g fill="#ffffff" fill-opacity="1"><g transform="translate(305.0, 361.799273)"><g><path d="M 6.4375 0 L 3.4375 0 L 3.4375 -28.34375 L 6.4375 -28.34375 Z M 6.4375 0 "/></g></g></g></g></svg>