<svg xmlns="http://www.w3.org/2000/svg" xmlns:xlink="http://www.w3.org/1999/xlink" width="500" zoomAndPan="magnify" viewBox="0 0 375 374.999991" height="500" preserveAspectRatio="xMidYMid meet" version="1.0"><defs><g/><clipPath id="b2cb1dd3fc"><path d="M 151 81.363281 L 262.5 81.363281 L 262.5 150 L 151 150 Z M 151 81.363281 " clip-rule="nonzero"/></clipPath><clipPath id="5b6ee40c8a"><path d="M 112.5 161 L 188 161 L 188 204 L 112.5 204 Z M 112.5 161 " clip-rule="nonzero"/></clipPath><clipPath id="163a92f1c7"><path d="M 236 162 L 238 162 L 238 205.863281 L 236 205.863281 Z M 236 162 " clip-rule="nonzero"/></clipPath><clipPath id="cd332170c7"><path d="M 240 165 L 242 165 L 242 205.863281 L 240 205.863281 Z M 240 165 " clip-rule="nonzero"/></clipPath><clipPath id="d3279c1696"><path d="M 245 167 L 247 167 L 247 205.863281 L 245 205.863281 Z M 245 167 " clip-rule="nonzero"/></clipPath><clipPath id="811ec64b3a"><path d="M 249 170 L 251 170 L 251 205.863281 L 249 205.863281 Z M 249 170 " clip-rule="nonzero"/></clipPath></defs><path fill="#000000" d="M 125.796875 139.359375 L 125.273438 202.425781 C 125.273438 202.652344 125.089844 202.832031 124.863281 202.832031 C 124.640625 202.828125 124.460938 202.644531 124.460938 202.421875 L 124.984375 139.351562 C 124.988281 139.128906 125.171875 138.949219 125.394531 138.949219 C 125.617188 138.953125 125.796875 139.136719 125.796875 139.359375 Z M 125.796875 139.359375 " fill-opacity="1" fill-rule="nonzero"/><path fill="#000000" d="M 125.789062 153.316406 L 137.515625 160.933594 C 137.703125 161.054688 137.753906 161.308594 137.632812 161.496094 C 137.511719 161.683594 137.261719 161.738281 137.074219 161.613281 L 125.347656 154 C 125.160156 153.878906 125.105469 153.625 125.230469 153.4375 C 125.351562 153.25 125.601562 153.195312 125.789062 153.316406 Z M 125.789062 153.316406 " fill-opacity="1" fill-rule="nonzero"/><path fill="#000000" d="M 137.84375 161.210938 L 137.5 202.878906 C 137.496094 203.101562 137.316406 203.28125 137.089844 203.28125 C 136.867188 203.277344 136.6875 203.09375 136.6875 202.871094 L 137.035156 161.207031 C 137.035156 160.980469 137.21875 160.800781 137.441406 160.804688 C 137.667969 160.804688 137.847656 160.988281 137.84375 161.210938 Z M 137.84375 161.210938 " fill-opacity="1" fill-rule="nonzero"/><path fill="#000000" d="M 129.828125 156.503906 L 129.441406 202.707031 C 129.441406 202.929688 129.257812 203.113281 129.035156 203.109375 C 128.808594 203.109375 128.628906 202.925781 128.632812 202.699219 L 129.015625 156.5 C 129.015625 156.273438 129.199219 156.09375 129.425781 156.09375 C 129.648438 156.097656 129.828125 156.28125 129.828125 156.503906 Z M 129.828125 156.503906 " fill-opacity="1" fill-rule="nonzero"/><path fill="#000000" d="M 133.882812 159.378906 L 133.523438 202.960938 C 133.519531 203.1875 133.335938 203.367188 133.113281 203.363281 C 132.886719 203.363281 132.707031 203.179688 132.710938 202.953125 L 133.070312 159.371094 C 133.074219 159.148438 133.257812 158.96875 133.480469 158.96875 C 133.707031 158.972656 133.886719 159.15625 133.882812 159.378906 Z M 133.882812 159.378906 " fill-opacity="1" fill-rule="nonzero"/><path fill="#000000" d="M 125.515625 138.714844 L 162.347656 118.253906 C 162.542969 118.144531 162.789062 118.214844 162.898438 118.410156 C 163.007812 118.609375 162.9375 118.855469 162.742188 118.964844 L 125.910156 139.425781 C 125.714844 139.535156 125.464844 139.464844 125.359375 139.269531 C 125.25 139.070312 125.320312 138.824219 125.515625 138.714844 Z M 125.515625 138.714844 " fill-opacity="1" fill-rule="nonzero"/><path fill="#000000" d="M 163.457031 118.976562 L 162.765625 202.253906 C 162.765625 202.480469 162.582031 202.660156 162.359375 202.660156 C 162.132812 202.65625 161.953125 202.472656 161.957031 202.25 L 162.648438 118.972656 C 162.648438 118.746094 162.832031 118.566406 163.054688 118.570312 C 163.28125 118.570312 163.460938 118.753906 163.457031 118.976562 Z M 163.457031 118.976562 " fill-opacity="1" fill-rule="nonzero"/><path fill="#000000" d="M 163.167969 118.195312 L 187.695312 132.65625 C 187.890625 132.769531 187.953125 133.015625 187.839844 133.210938 C 187.726562 133.40625 187.476562 133.46875 187.285156 133.355469 L 162.753906 118.898438 C 162.5625 118.785156 162.496094 118.535156 162.609375 118.339844 C 162.726562 118.148438 162.972656 118.082031 163.167969 118.195312 Z M 163.167969 118.195312 " fill-opacity="1" fill-rule="nonzero"/><path fill="#000000" d="M 188.050781 133.679688 C 188.050781 133.90625 187.871094 134.089844 187.644531 134.089844 C 187.421875 134.089844 187.238281 133.90625 187.238281 133.679688 C 187.238281 133.457031 187.421875 133.273438 187.644531 133.273438 C 187.871094 133.273438 188.050781 133.457031 188.050781 133.679688 Z M 188.050781 133.679688 " fill-opacity="1" fill-rule="nonzero"/><path fill="#000000" d="M 188.160156 133.382812 L 187.582031 203.386719 C 187.578125 203.609375 187.394531 203.789062 187.171875 203.789062 C 186.949219 203.785156 186.765625 203.601562 186.769531 203.378906 L 187.351562 133.375 C 187.351562 133.152344 187.535156 132.972656 187.757812 132.972656 C 187.984375 132.976562 188.164062 133.160156 188.160156 133.382812 Z M 188.160156 133.382812 " fill-opacity="1" fill-rule="nonzero"/><path fill="#000000" d="M 163.195312 146.746094 L 198.953125 168.449219 C 199.144531 168.566406 199.207031 168.816406 199.089844 169.007812 C 198.976562 169.199219 198.726562 169.261719 198.535156 169.144531 L 162.777344 147.441406 C 162.585938 147.324219 162.523438 147.074219 162.640625 146.882812 C 162.757812 146.691406 163.003906 146.632812 163.195312 146.746094 Z M 163.195312 146.746094 " fill-opacity="1" fill-rule="nonzero"/><path fill="#000000" d="M 138.375 118.105469 L 137.808594 131.851562 C 137.800781 132.074219 137.613281 132.25 137.386719 132.242188 C 137.164062 132.230469 136.988281 132.042969 137 131.816406 L 137.566406 118.074219 C 137.574219 117.847656 137.761719 117.675781 137.988281 117.683594 C 138.210938 117.691406 138.386719 117.882812 138.375 118.105469 Z M 138.375 118.105469 " fill-opacity="1" fill-rule="nonzero"/><path fill="#000000" d="M 138.429688 117.558594 L 150.800781 124.425781 C 150.996094 124.535156 151.066406 124.785156 150.957031 124.980469 C 150.851562 125.175781 150.601562 125.246094 150.40625 125.136719 L 138.035156 118.269531 C 137.839844 118.164062 137.769531 117.914062 137.878906 117.71875 C 137.984375 117.523438 138.234375 117.453125 138.429688 117.558594 Z M 138.429688 117.558594 " fill-opacity="1" fill-rule="nonzero"/><path fill="#000000" d="M 176.222656 110.90625 L 176.097656 125.914062 C 176.09375 126.136719 175.914062 126.320312 175.6875 126.316406 C 175.464844 126.316406 175.285156 126.132812 175.285156 125.90625 L 175.410156 110.898438 C 175.414062 110.671875 175.59375 110.492188 175.820312 110.496094 C 176.042969 110.496094 176.222656 110.679688 176.222656 110.90625 Z M 176.222656 110.90625 " fill-opacity="1" fill-rule="nonzero"/><path fill="#000000" d="M 225.792969 84.472656 L 176.335938 111.246094 C 176.136719 111.351562 175.890625 111.277344 175.785156 111.082031 C 175.679688 110.882812 175.75 110.636719 175.949219 110.53125 L 225.40625 83.757812 C 225.605469 83.652344 225.851562 83.726562 225.957031 83.921875 C 226.0625 84.121094 225.992188 84.367188 225.792969 84.472656 Z M 225.792969 84.472656 " fill-opacity="1" fill-rule="nonzero"/><g clip-path="url(#b2cb1dd3fc)"><path fill="#000000" d="M 152.183594 81.472656 L 262.257812 148.382812 C 262.449219 148.5 262.511719 148.75 262.394531 148.941406 C 262.28125 149.136719 262.03125 149.195312 261.839844 149.078125 L 151.761719 82.167969 C 151.570312 82.050781 151.511719 81.800781 151.625 81.609375 C 151.742188 81.417969 151.992188 81.355469 152.183594 81.472656 Z M 152.183594 81.472656 " fill-opacity="1" fill-rule="nonzero"/></g><g clip-path="url(#5b6ee40c8a)"><path fill="#000000" d="M 187.40625 162.480469 L 113.15625 203.765625 C 112.960938 203.871094 112.714844 203.800781 112.605469 203.605469 C 112.496094 203.410156 112.566406 203.164062 112.761719 203.054688 L 187.011719 161.769531 C 187.207031 161.660156 187.453125 161.730469 187.5625 161.925781 C 187.671875 162.125 187.601562 162.371094 187.40625 162.480469 Z M 187.40625 162.480469 " fill-opacity="1" fill-rule="nonzero"/></g><path fill="#000000" d="M 175.152344 169.070312 L 174.859375 204.1875 C 174.859375 204.414062 174.675781 204.59375 174.449219 204.589844 C 174.226562 204.589844 174.046875 204.40625 174.046875 204.179688 L 174.339844 169.0625 C 174.34375 168.835938 174.523438 168.65625 174.75 168.660156 C 174.972656 168.660156 175.152344 168.84375 175.152344 169.070312 Z M 175.152344 169.070312 " fill-opacity="1" fill-rule="nonzero"/><path fill="#000000" d="M 179.828125 166.945312 L 179.515625 204.40625 C 179.515625 204.632812 179.332031 204.8125 179.105469 204.808594 C 178.882812 204.808594 178.703125 204.625 178.703125 204.398438 L 179.015625 166.9375 C 179.015625 166.714844 179.199219 166.53125 179.425781 166.535156 C 179.648438 166.535156 179.828125 166.71875 179.828125 166.945312 Z M 179.828125 166.945312 " fill-opacity="1" fill-rule="nonzero"/><path fill="#000000" d="M 183.925781 164.589844 L 183.597656 204.214844 C 183.59375 204.441406 183.410156 204.621094 183.1875 204.617188 C 182.960938 204.617188 182.78125 204.433594 182.785156 204.210938 L 183.113281 164.582031 C 183.113281 164.359375 183.296875 164.179688 183.523438 164.179688 C 183.746094 164.183594 183.925781 164.367188 183.925781 164.589844 Z M 183.925781 164.589844 " fill-opacity="1" fill-rule="nonzero"/><path fill="#000000" d="M 199.851562 126.613281 L 199.222656 202.582031 C 199.21875 202.804688 199.035156 202.984375 198.8125 202.984375 C 198.589844 202.980469 198.40625 202.796875 198.410156 202.574219 L 199.039062 126.605469 C 199.042969 126.382812 199.226562 126.203125 199.449219 126.203125 C 199.671875 126.203125 199.851562 126.386719 199.851562 126.613281 Z M 199.851562 126.613281 " fill-opacity="1" fill-rule="nonzero"/><path fill="#000000" d="M 238.390625 106.007812 L 199.589844 126.867188 C 199.394531 126.972656 199.148438 126.898438 199.039062 126.703125 C 198.933594 126.503906 199.007812 126.257812 199.207031 126.152344 L 238.007812 105.289062 C 238.203125 105.183594 238.449219 105.257812 238.554688 105.457031 C 238.664062 105.652344 238.589844 105.898438 238.390625 106.007812 Z M 238.390625 106.007812 " fill-opacity="1" fill-rule="nonzero"/><path fill="#000000" d="M 213.367188 119.550781 L 212.660156 204.375 C 212.660156 204.597656 212.476562 204.78125 212.253906 204.777344 C 212.027344 204.777344 211.847656 204.59375 211.851562 204.367188 L 212.554688 119.542969 C 212.554688 119.320312 212.738281 119.140625 212.960938 119.140625 C 213.1875 119.144531 213.367188 119.328125 213.367188 119.550781 Z M 213.367188 119.550781 " fill-opacity="1" fill-rule="nonzero"/><path fill="#000000" d="M 205.109375 124.261719 L 204.957031 142.503906 C 204.957031 142.730469 204.773438 142.910156 204.550781 142.90625 C 204.324219 142.90625 204.144531 142.722656 204.148438 142.496094 L 204.296875 124.253906 C 204.300781 124.03125 204.484375 123.847656 204.707031 123.851562 C 204.933594 123.851562 205.113281 124.035156 205.109375 124.261719 Z M 205.109375 124.261719 " fill-opacity="1" fill-rule="nonzero"/><path fill="#000000" d="M 209.144531 122.007812 L 208.953125 144.886719 C 208.953125 145.109375 208.769531 145.289062 208.542969 145.289062 C 208.320312 145.285156 208.140625 145.101562 208.140625 144.878906 L 208.332031 122 C 208.332031 121.773438 208.515625 121.59375 208.742188 121.597656 C 208.964844 121.597656 209.144531 121.78125 209.144531 122.007812 Z M 209.144531 122.007812 " fill-opacity="1" fill-rule="nonzero"/><path fill="#000000" d="M 260.253906 177.636719 L 199.671875 140.695312 C 199.480469 140.578125 199.421875 140.328125 199.535156 140.136719 C 199.652344 139.945312 199.902344 139.886719 200.09375 140 L 260.675781 176.941406 C 260.867188 177.058594 260.925781 177.308594 260.8125 177.5 C 260.695312 177.691406 260.445312 177.753906 260.253906 177.636719 Z M 260.253906 177.636719 " fill-opacity="1" fill-rule="nonzero"/><path fill="#000000" d="M 239.035156 83.757812 L 238.621094 133.6875 C 238.621094 133.910156 238.4375 134.089844 238.210938 134.089844 C 237.988281 134.085938 237.808594 133.902344 237.808594 133.679688 L 238.222656 83.753906 C 238.226562 83.527344 238.410156 83.347656 238.632812 83.347656 C 238.859375 83.351562 239.039062 83.535156 239.035156 83.757812 Z M 239.035156 83.757812 " fill-opacity="1" fill-rule="nonzero"/><path fill="#000000" d="M 250.488281 113.125 L 238.46875 105.910156 C 238.277344 105.796875 238.214844 105.546875 238.332031 105.355469 C 238.445312 105.160156 238.695312 105.097656 238.886719 105.214844 L 250.90625 112.429688 C 251.097656 112.542969 251.160156 112.792969 251.046875 112.984375 C 250.929688 113.179688 250.679688 113.242188 250.488281 113.125 Z M 250.488281 113.125 " fill-opacity="1" fill-rule="nonzero"/><path fill="#000000" d="M 251.09375 112.855469 L 250.980469 126.332031 C 250.980469 126.554688 250.796875 126.738281 250.574219 126.734375 C 250.347656 126.734375 250.167969 126.550781 250.171875 126.324219 L 250.28125 112.851562 C 250.285156 112.625 250.46875 112.445312 250.691406 112.449219 C 250.914062 112.449219 251.09375 112.632812 251.09375 112.855469 Z M 251.09375 112.855469 " fill-opacity="1" fill-rule="nonzero"/><path fill="#000000" d="M 261.203125 120.941406 L 238.792969 133.835938 C 238.601562 133.949219 238.351562 133.878906 238.238281 133.6875 C 238.128906 133.492188 238.195312 133.242188 238.390625 133.132812 L 260.796875 120.234375 C 260.992188 120.121094 261.238281 120.191406 261.351562 120.382812 C 261.464844 120.578125 261.394531 120.828125 261.203125 120.941406 Z M 261.203125 120.941406 " fill-opacity="1" fill-rule="nonzero"/><path fill="#000000" d="M 242.921875 107.992188 L 242.730469 131.125 C 242.726562 131.347656 242.542969 131.527344 242.320312 131.527344 C 242.097656 131.523438 241.917969 131.34375 241.917969 131.117188 L 242.109375 107.984375 C 242.113281 107.757812 242.296875 107.578125 242.519531 107.582031 C 242.742188 107.582031 242.921875 107.765625 242.921875 107.992188 Z M 242.921875 107.992188 " fill-opacity="1" fill-rule="nonzero"/><path fill="#000000" d="M 247.453125 110.625 L 246.761719 128.496094 C 246.75 128.71875 246.5625 128.894531 246.339844 128.886719 C 246.113281 128.878906 245.941406 128.6875 245.949219 128.464844 L 246.640625 110.59375 C 246.648438 110.367188 246.835938 110.195312 247.0625 110.203125 C 247.285156 110.210938 247.460938 110.398438 247.453125 110.625 Z M 247.453125 110.625 " fill-opacity="1" fill-rule="nonzero"/><g clip-path="url(#163a92f1c7)"><path fill="#000000" d="M 237.59375 163.050781 L 237.246094 205.214844 C 237.242188 205.4375 237.058594 205.617188 236.835938 205.617188 C 236.613281 205.617188 236.433594 205.433594 236.433594 205.207031 L 236.785156 163.042969 C 236.785156 162.820312 236.96875 162.640625 237.191406 162.640625 C 237.417969 162.644531 237.597656 162.828125 237.59375 163.050781 Z M 237.59375 163.050781 " fill-opacity="1" fill-rule="nonzero"/></g><g clip-path="url(#cd332170c7)"><path fill="#000000" d="M 241.921875 165.773438 L 241.597656 205.035156 C 241.59375 205.261719 241.410156 205.441406 241.1875 205.4375 C 240.964844 205.4375 240.785156 205.253906 240.785156 205.03125 L 241.109375 165.765625 C 241.113281 165.542969 241.296875 165.359375 241.519531 165.363281 C 241.746094 165.363281 241.925781 165.546875 241.921875 165.773438 Z M 241.921875 165.773438 " fill-opacity="1" fill-rule="nonzero"/></g><g clip-path="url(#d3279c1696)"><path fill="#000000" d="M 246.171875 168.171875 L 245.859375 205.445312 C 245.859375 205.671875 245.675781 205.851562 245.453125 205.847656 C 245.226562 205.847656 245.046875 205.664062 245.050781 205.4375 L 245.359375 168.167969 C 245.359375 167.941406 245.542969 167.761719 245.769531 167.761719 C 245.992188 167.765625 246.171875 167.949219 246.171875 168.171875 Z M 246.171875 168.171875 " fill-opacity="1" fill-rule="nonzero"/></g><g clip-path="url(#811ec64b3a)"><path fill="#000000" d="M 250.324219 171.210938 L 250.042969 205.300781 C 250.039062 205.523438 249.855469 205.703125 249.632812 205.703125 C 249.40625 205.699219 249.226562 205.515625 249.230469 205.292969 L 249.511719 171.203125 C 249.515625 170.976562 249.699219 170.796875 249.921875 170.800781 C 250.144531 170.800781 250.324219 170.984375 250.324219 171.210938 Z M 250.324219 171.210938 " fill-opacity="1" fill-rule="nonzero"/></g><path fill="#000000" d="M 236.785156 162.992188 L 237.867188 134.453125 C 237.875 134.230469 238.0625 134.054688 238.285156 134.0625 C 238.511719 134.070312 238.6875 134.261719 238.675781 134.484375 L 237.597656 163.023438 C 237.585938 163.246094 237.398438 163.421875 237.175781 163.414062 C 236.949219 163.402344 236.777344 163.214844 236.785156 162.992188 Z M 236.785156 162.992188 " fill-opacity="1" fill-rule="nonzero"/><path fill="#000000" d="M 212.429688 148.605469 L 187.863281 162.164062 C 187.664062 162.269531 187.417969 162.199219 187.308594 162.003906 C 187.203125 161.804688 187.273438 161.558594 187.46875 161.449219 L 212.039062 147.894531 C 212.234375 147.785156 212.480469 147.859375 212.589844 148.054688 C 212.695312 148.25 212.625 148.5 212.429688 148.605469 Z M 212.429688 148.605469 " fill-opacity="1" fill-rule="nonzero"/><path fill="#000000" d="M 238.8125 133.949219 L 213.101562 148.136719 C 212.902344 148.246094 212.65625 148.171875 212.546875 147.976562 C 212.441406 147.78125 212.511719 147.53125 212.707031 147.425781 L 238.421875 133.234375 C 238.617188 133.128906 238.863281 133.199219 238.972656 133.394531 C 239.082031 133.59375 239.007812 133.839844 238.8125 133.949219 Z M 238.8125 133.949219 " fill-opacity="1" fill-rule="nonzero"/><g fill="#000000" fill-opacity="1"><g transform="translate(120.751938, 239.418939)"><g><path d="M 2.9375 0 L 1.578125 0 L 1.578125 -12.9375 L 2.765625 -12.9375 L 9.5 -2.703125 L 9.5 -12.9375 L 10.875 -12.9375 L 10.875 0 L 9.71875 0 L 2.9375 -10.328125 Z M 2.9375 0 "/></g></g></g><g fill="#000000" fill-opacity="1"><g transform="translate(139.495585, 239.418939)"><g><path d="M 6.59375 0.1875 C 5.5 0.1875 4.535156 -0.078125 3.703125 -0.609375 C 2.867188 -1.148438 2.21875 -1.921875 1.75 -2.921875 C 1.28125 -3.921875 1.046875 -5.101562 1.046875 -6.46875 C 1.046875 -7.820312 1.273438 -8.992188 1.734375 -9.984375 C 2.203125 -10.984375 2.851562 -11.753906 3.6875 -12.296875 C 4.53125 -12.847656 5.5 -13.125 6.59375 -13.125 C 7.695312 -13.125 8.660156 -12.851562 9.484375 -12.3125 C 10.316406 -11.78125 10.96875 -11.019531 11.4375 -10.03125 C 11.90625 -9.039062 12.140625 -7.851562 12.140625 -6.46875 C 12.140625 -5.125 11.910156 -3.953125 11.453125 -2.953125 C 10.992188 -1.953125 10.347656 -1.175781 9.515625 -0.625 C 8.679688 -0.0820312 7.707031 0.1875 6.59375 0.1875 Z M 6.59375 -1.109375 C 7.40625 -1.109375 8.117188 -1.320312 8.734375 -1.75 C 9.347656 -2.175781 9.820312 -2.785156 10.15625 -3.578125 C 10.5 -4.378906 10.671875 -5.34375 10.671875 -6.46875 C 10.671875 -7.539062 10.507812 -8.476562 10.1875 -9.28125 C 9.863281 -10.082031 9.394531 -10.707031 8.78125 -11.15625 C 8.175781 -11.601562 7.445312 -11.828125 6.59375 -11.828125 C 5.789062 -11.828125 5.082031 -11.613281 4.46875 -11.1875 C 3.851562 -10.757812 3.375 -10.148438 3.03125 -9.359375 C 2.695312 -8.566406 2.53125 -7.601562 2.53125 -6.46875 C 2.53125 -5.40625 2.691406 -4.46875 3.015625 -3.65625 C 3.347656 -2.851562 3.816406 -2.226562 4.421875 -1.78125 C 5.023438 -1.332031 5.75 -1.109375 6.59375 -1.109375 Z M 6.59375 -1.109375 "/></g></g></g><g fill="#000000" fill-opacity="1"><g transform="translate(158.996923, 239.418939)"><g><path d="M 6.484375 0 L 5.078125 0 L 0.390625 -12.9375 L 1.84375 -12.9375 L 5.78125 -1.90625 L 5.796875 -1.90625 L 9.734375 -12.9375 L 11.1875 -12.9375 Z M 6.484375 0 "/></g></g></g><g fill="#000000" fill-opacity="1"><g transform="translate(176.871986, 239.418939)"><g><path d="M 2.953125 0 L 1.59375 0 L 1.578125 -12.9375 L 2.953125 -12.9375 Z M 10.4375 0 L 8.75 0 L 3.09375 -6.546875 L 3.09375 -6.625 L 8.421875 -12.9375 L 10.140625 -12.9375 L 4.765625 -6.59375 Z M 10.4375 0 "/></g></g></g><g fill="#000000" fill-opacity="1"><g transform="translate(194.081759, 239.418939)"><g><path d="M 9.328125 -7.109375 L 9.328125 -12.9375 L 10.765625 -12.9375 L 10.765625 0 L 9.328125 0 L 9.328125 -5.875 L 2.96875 -5.875 L 2.96875 0 L 1.578125 0 L 1.578125 -12.9375 L 2.96875 -12.9375 L 2.96875 -7.109375 Z M 9.328125 -7.109375 "/></g></g></g><g fill="#000000" fill-opacity="1"><g transform="translate(212.714525, 239.418939)"><g><path d="M 11.578125 0 L 10.125 0 L 8.984375 -3.109375 L 2.96875 -3.109375 L 1.8125 0 L 0.390625 0 L 5.25 -12.9375 L 6.703125 -12.9375 Z M 5.96875 -11.1875 L 3.4375 -4.34375 L 8.515625 -4.34375 Z M 5.96875 -11.1875 "/></g></g></g><g fill="#000000" fill-opacity="1"><g transform="translate(230.97768, 239.418939)"><g><path d="M 2.9375 0 L 1.578125 0 L 1.578125 -12.9375 L 2.765625 -12.9375 L 9.5 -2.703125 L 9.5 -12.9375 L 10.875 -12.9375 L 10.875 0 L 9.71875 0 L 2.9375 -10.328125 Z M 2.9375 0 "/></g></g></g><g fill="#000000" fill-opacity="1"><g transform="translate(249.721327, 239.418939)"><g><path d="M 2.9375 0 L 1.578125 0 L 1.578125 -12.9375 L 2.9375 -12.9375 Z M 2.9375 0 "/></g></g></g></svg>
